g TriGroup

v 0.95024 2 0.573549
vt -0.5 2
vn 0.518027 0 0.855364
v 0.672246 -4.90501e-020 0.741907
vt -1 0
v 1.22823 -4.90501e-020 0.40519
vt 0 0
f 1/1/1 2/2/1 3/3/1

v -1.03094 1.62 -0.753415
vn -0.960779 -1.382e-016 -0.277315
v -0.966661 4.88808e-031 -0.976124
v -1.09522 4.65591e-031 -0.530707
f 4/1/2 5/2/2 6/3/2

v 0.0425023 3.1765 -0.0085158
vn 0.913517 4.27872e-016 0.406802
v -0.114116 3.33067e-015 0.343188
v 0.199121 3.33067e-015 -0.36022
f 7/1/3 8/2/3 9/3/3

v -0.615313 2.187 1.17196
vn -0.5 6.80087e-017 -0.866025
v -0.299214 3.55208e-015 0.989463
v -0.931412 3.55208e-015 1.35446
f 10/1/4 11/2/4 12/3/4

v 0.449787 2.1472 -0.95955
vn -0.956814 5.35341e-017 0.290702
v 0.356762 1.39524e-031 -1.26573
v 0.542812 1.72746e-031 -0.65337
f 13/1/5 14/2/5 15/3/5

