# 3ds Max Wavefront OBJ Exporter v0.97b - (c)2007 guruware
# File Created: 19.09.2016 22:21:46

#
# object Box001
#

v  -8.0238 0.0000 15.6523
v  -8.0238 0.0000 -11.9067
v  -2.1183 0.0000 -11.9067
v  -2.1183 0.0000 15.6523
v  -2.4736 47.2441 15.6523
v  -2.4736 49.5642 1.8728
v  -7.6685 49.5642 1.8728
v  -7.6685 47.2441 15.6523
v  3.0154 0.0000 20.7859
v  3.0154 4.0282 20.7859
v  -12.8021 4.0282 20.7859
v  -12.8021 0.0000 20.7859
v  3.0154 0.0000 -16.6851
v  3.0154 4.0282 -16.6851
v  -12.8021 0.0000 -17.0404
v  -12.8021 4.0282 -17.0404
v  2.6600 4.0282 -17.0404
v  2.6600 0.0000 -17.0404
v  -13.1574 0.0000 20.4306
v  -13.1574 4.0282 20.4306
v  -13.1574 4.0282 -16.6851
v  -13.1574 0.0000 -16.6851
v  -7.6685 4.3836 15.6523
v  -2.4736 4.3836 15.6523
v  -2.1183 49.2039 1.8728
v  -2.1183 46.9436 15.2970
v  -2.1183 4.3836 15.2970
v  -2.1183 4.3836 -11.5514
v  -2.1183 46.9436 -11.5514
v  -7.6685 47.2441 -11.9067
v  -2.4736 47.2441 -11.9067
v  -2.4736 4.3836 -11.9067
v  -7.6685 4.3836 -11.9067
v  -6.5807 47.0694 1.8728
v  -6.5807 45.1635 -9.4466
v  -6.5807 6.8437 -9.4466
v  -6.5807 6.8437 13.1921
v  -6.5807 45.1635 13.1921
v  -12.9062 0.0000 -16.7891
v  -12.9062 0.0000 20.5347
v  2.7641 0.0000 -16.7891
v  -8.2750 4.3836 15.9035
v  -12.9062 4.3836 20.5347
v  2.7641 4.3836 20.5347
v  -1.8670 4.3836 15.9035
v  -8.0238 4.3836 15.2970
v  -8.0238 4.3836 -11.5514
v  -8.2750 4.3836 -12.1580
v  -12.9062 4.3836 -16.7891
v  -1.8670 4.3836 -12.1580
v  2.7641 4.3836 -16.7891
v  -8.0238 49.2089 1.8728
v  -8.0238 47.0147 -11.6354
v  -8.0238 45.1635 -9.4466
v  -8.0238 47.0694 1.8728
v  -8.0238 4.6348 -11.6555
v  -8.0238 6.8437 -9.4466
v  -8.0238 4.6348 15.4011
v  -8.0238 6.8437 13.1921
v  -8.0238 47.0147 15.3810
v  -8.0238 45.1635 13.1921
# 61 vertices

vn 0.0000 -1.0000 -0.0000
vn 0.0000 0.9861 0.1660
vn 0.0000 1.0000 -0.0000
vn 0.0000 1.0000 0.0000
vn 0.0000 0.0000 1.0000
vn 1.0000 0.0000 -0.0000
vn 0.0000 0.0000 -1.0000
vn -1.0000 0.0000 -0.0000
vn 0.0000 0.9861 -0.1660
vn 0.0000 -0.9861 0.1660
vn 0.0000 -0.9861 -0.1660
vn -0.3015 0.9045 0.3015
vn -0.3015 0.9045 -0.3015
vn 0.7071 0.6973 0.1174
vn -0.6581 0.7428 -0.1229
vn -0.5924 0.0002 0.8056
vn 0.7071 0.0000 0.7071
vn 0.7071 0.0000 -0.7071
vn -0.5924 0.0002 -0.8056
vn 0.7071 0.6973 -0.1174
vn -0.6581 0.7428 0.1229
vn -0.6786 0.2811 0.6786
vn -0.6786 0.2811 -0.6786
vn 0.6786 0.2811 -0.6786
vn -0.7071 0.0000 -0.7071
vn -0.7071 0.0000 0.7071
vn 0.0000 0.5774 0.8165
vn -0.8165 0.5774 -0.0000
vn 0.0000 0.5774 -0.8165
vn 0.8165 0.5774 -0.0000
# 30 vertex normals

vt 0.3722 0.8014 0.0000
vt 0.0669 0.8014 0.0000
vt 0.0669 0.7360 0.0000
vt 0.3722 0.7360 0.0000
vt 0.0706 0.5466 0.0000
vt 0.2233 0.5466 0.0000
vt 0.2233 0.6042 0.0000
vt 0.0706 0.6042 0.0000
vt 0.2498 0.4896 0.0000
vt 0.2498 0.5342 0.0000
vt 0.0745 0.5342 0.0000
vt 0.0745 0.4896 0.0000
vt 0.0112 0.9409 0.0000
vt 0.0112 0.8962 0.0000
vt 0.4263 0.8962 0.0000
vt 0.4263 0.9409 0.0000
vt 0.2458 0.4325 0.0000
vt 0.2458 0.4771 0.0000
vt 0.0745 0.4771 0.0000
vt 0.0745 0.4325 0.0000
vt 0.5418 0.6015 0.0000
vt 0.5418 0.5569 0.0000
vt 0.9529 0.5569 0.0000
vt 0.9529 0.6015 0.0000
vt 0.9379 0.6831 0.0000
vt 0.9379 0.7406 0.0000
vt 0.4631 0.7406 0.0000
vt 0.4631 0.6831 0.0000
vt 0.5065 0.1627 0.0000
vt 0.4815 0.3114 0.0000
vt 0.0100 0.3114 0.0000
vt 0.0100 0.0139 0.0000
vt 0.4815 0.0139 0.0000
vt 0.9379 0.7825 0.0000
vt 0.9379 0.8400 0.0000
vt 0.4631 0.8400 0.0000
vt 0.4631 0.7825 0.0000
vt 0.9862 0.1354 0.0000
vt 0.9651 0.2608 0.0000
vt 0.5405 0.2608 0.0000
vt 0.5405 0.0100 0.0000
vt 0.9651 0.0100 0.0000
vt 0.4251 0.8583 0.0000
vt 0.0139 0.8583 0.0000
vt 0.0128 0.8555 0.0000
vt 0.4263 0.8555 0.0000
vt 0.4291 0.6791 0.0000
vt 0.4291 0.8544 0.0000
vt 0.0128 0.6819 0.0000
vt 0.0139 0.6791 0.0000
vt 0.0100 0.8544 0.0000
vt 0.0100 0.6831 0.0000
vt 0.5947 0.4034 0.0000
vt 0.5947 0.4610 0.0000
vt 0.5919 0.4677 0.0000
vt 0.5406 0.5190 0.0000
vt 0.5406 0.3454 0.0000
vt 0.5919 0.3967 0.0000
vt 0.5986 0.4649 0.0000
vt 0.8961 0.4649 0.0000
vt 0.9028 0.4677 0.0000
vt 0.9541 0.5190 0.0000
vt 0.9000 0.4610 0.0000
vt 0.9000 0.4034 0.0000
vt 0.9028 0.3967 0.0000
vt 0.9541 0.3454 0.0000
vt 0.8961 0.3995 0.0000
vt 0.5986 0.3995 0.0000
vt 0.3759 0.5466 0.0000
vt 0.3759 0.6042 0.0000
vt 0.5066 0.4953 0.0000
vt 0.4823 0.6449 0.0000
vt 0.4618 0.6207 0.0000
vt 0.4829 0.4953 0.0000
vt 0.0128 0.6451 0.0000
vt 0.0373 0.6207 0.0000
vt 0.0100 0.6440 0.0000
vt 0.0100 0.3465 0.0000
vt 0.0128 0.3454 0.0000
vt 0.0373 0.3699 0.0000
vt 0.4823 0.3456 0.0000
vt 0.4618 0.3699 0.0000
vt 0.5885 0.9400 0.0000
vt 0.4631 0.9400 0.0000
vt 0.4631 0.9240 0.0000
vt 0.5885 0.9240 0.0000
vt 0.8876 0.8900 0.0000
vt 0.4631 0.8900 0.0000
vt 0.4631 0.8740 0.0000
vt 0.8876 0.8740 0.0000
vt 0.7914 0.6430 0.0000
vt 0.5406 0.6430 0.0000
vt 0.5406 0.6271 0.0000
vt 0.7914 0.6271 0.0000
vt 0.5405 0.2948 0.0000
vt 0.9651 0.2948 0.0000
vt 0.9651 0.3108 0.0000
vt 0.5405 0.3108 0.0000
vt 0.7139 0.9400 0.0000
vt 0.7139 0.9240 0.0000
vt 0.5975 0.4649 0.0000
vt 0.8972 0.4649 0.0000
vt 0.0100 0.9715 0.0000
vt 0.0140 0.9664 0.0000
vt 0.1637 0.9844 0.0000
vt 0.1637 0.9900 0.0000
vt 0.2233 0.6081 0.0000
vt 0.3729 0.6081 0.0000
vt 0.4658 0.7446 0.0000
vt 0.9353 0.7446 0.0000
vt 0.4631 0.6791 0.0000
vt 0.9346 0.6791 0.0000
vt 0.0100 0.0100 0.0000
vt 0.4848 0.0100 0.0000
vt 0.9353 0.7786 0.0000
vt 0.4658 0.7786 0.0000
vt 0.3094 0.9668 0.0000
vt 0.3132 0.9719 0.0000
vt 0.0736 0.6081 0.0000
vt 0.6095 0.4475 0.0000
vt 0.6067 0.4516 0.0000
vt 0.6039 0.4475 0.0000
vt 0.6981 0.4493 0.0000
vt 0.6953 0.4534 0.0000
vt 0.6925 0.4493 0.0000
vt 0.8205 0.4475 0.0000
vt 0.8177 0.4516 0.0000
vt 0.8149 0.4475 0.0000
vt 0.0706 0.4325 0.0000
vt 0.0706 0.4771 0.0000
vt 0.2498 0.4325 0.0000
vt 0.2498 0.4771 0.0000
vt 0.0706 0.5342 0.0000
vt 0.0706 0.4896 0.0000
vt 0.2470 0.5381 0.0000
vt 0.0734 0.5381 0.0000
vt 0.5406 0.5530 0.0000
vt 0.9541 0.5530 0.0000
vt 0.2470 0.4811 0.0000
vt 0.0734 0.4811 0.0000
vt 0.0100 0.8923 0.0000
vt 0.4235 0.8923 0.0000
# 142 texture coords

g Box001
s 2
f 1/1/1 2/2/1 3/3/1 4/4/1 
s 4
f 5/5/2 6/6/3 7/7/4 8/8/2 
s 8
f 9/9/5 10/10/5 11/11/5 12/12/5 
s 16
f 13/13/6 14/14/6 10/15/6 9/16/6 
s 32
f 15/17/7 16/18/7 17/19/7 18/20/7 
s 64
f 19/21/8 20/22/8 21/23/8 22/24/8 
s 8
f 5/25/5 8/26/5 23/27/5 24/28/5 
s 16
f 25/29/6 26/30/6 27/31/6 28/32/6 29/33/6 
s 32
f 30/34/7 31/35/7 32/36/7 33/37/7 
s 64
f 34/38/8 35/39/8 36/40/8 37/41/8 38/42/8 
s off
f 19/43/1 22/44/1 39/45/1 2/2/1 1/1/1 40/46/1 
f 9/47/1 12/48/1 40/46/1 1/1/1 4/4/1 
f 3/3/1 41/49/1 13/50/1 9/47/1 4/4/1 
f 15/51/1 18/52/1 41/49/1 3/3/1 2/2/1 39/45/1 
f 24/53/3 23/54/3 42/55/3 43/56/3 44/57/3 45/58/3 
f 46/59/3 47/60/3 48/61/3 49/62/3 43/56/3 42/55/3 
f 33/63/3 32/64/3 50/65/3 51/66/3 49/62/3 48/61/3 
f 28/67/3 27/68/3 45/58/3 44/57/3 51/66/3 50/65/3 
s 4
f 31/69/9 30/70/9 7/7/4 6/6/3 
s off
f 52/71/8 53/72/8 54/73/8 55/74/8 
f 53/72/8 56/75/8 57/76/8 54/73/8 
f 47/77/8 46/78/8 58/79/8 59/80/8 57/76/8 56/75/8 
f 58/79/8 60/81/8 61/82/8 59/80/8 
f 60/81/8 52/71/8 55/74/8 61/82/8 
f 55/83/10 54/84/10 35/85/10 34/86/10 
f 54/87/5 57/88/5 36/89/5 35/90/5 
f 57/91/3 59/92/3 37/93/3 36/94/3 
f 59/95/7 61/96/7 38/97/7 37/98/7 
f 61/99/11 55/83/11 34/86/11 38/100/11 
f 24/53/3 45/58/3 27/68/3 
f 58/101/12 46/59/12 42/55/12 23/54/12 
f 28/67/3 50/65/3 32/64/3 
f 33/63/13 48/61/13 47/60/13 56/102/13 
f 5/103/14 26/104/14 25/105/14 6/106/14 
f 52/107/15 7/7/15 30/70/15 53/108/15 
f 58/109/16 23/27/16 8/26/16 60/110/16 
f 24/28/17 27/111/17 26/112/17 5/25/17 
f 28/32/18 32/113/18 31/114/18 29/33/18 
f 53/115/19 30/34/19 33/37/19 56/116/19 
f 6/106/20 25/105/20 29/117/20 31/118/20 
f 60/119/21 8/8/21 7/7/21 52/107/21 
f 39/45/1 22/44/1 15/51/1 
f 40/46/1 12/48/1 19/43/1 
f 41/49/1 18/52/1 13/50/1 
f 11/120/22 43/121/22 20/122/22 
f 21/123/23 49/124/23 16/125/23 
f 17/126/24 51/127/24 14/128/24 
f 13/129/18 18/20/18 17/19/18 14/130/18 
f 15/17/25 22/131/25 21/132/25 16/18/25 
f 11/11/26 20/133/26 19/134/26 12/12/26 
f 10/10/27 44/135/27 43/136/27 11/11/27 
f 20/22/28 43/137/28 49/138/28 21/23/28 
f 16/18/29 49/139/29 51/140/29 17/19/29 
f 14/14/30 51/141/30 44/142/30 10/15/30 
# 46 polygons - 8 triangles

